<svg viewBox="0 0 18 18" xmlns="http://www.w3.org/2000/svg" fill="#999">
    <path d="M9 16c-3.84 0-7-3.16-7-7s3.16-7 7-7 7 3.16 7 7-3.16 7-7 7Zm0 1c4.389 0 8-3.611 8-8 0-4.389-3.611-8-8-8-4.389 0-8 3.611-8 8 0 4.389 3.611 8 8 8Z"/>
    <path d="M6.255 6.786v.01c0 .13.107.237.237.237h.829c.138 0 .248-.113.266-.25.09-.656.54-1.134 1.342-1.134.686 0 1.314.343 1.314 1.168 0 .635-.374.927-.965 1.371-.673.489-1.206 1.06-1.168 1.987l.003.217a.25.25 0 0 0 .25.246h.811c.137 0 .25-.113.25-.25v-.105c0-.718.273-.927 1.01-1.486.609-.463 1.244-.977 1.244-2.056 0-1.511-1.276-2.241-2.673-2.241-1.267 0-2.655.59-2.75 2.286Zm1.557 5.763c0 .533.425.927 1.01.927.609 0 1.028-.394 1.028-.927 0-.552-.42-.94-1.029-.94-.584 0-1.009.388-1.009.94Z"/>
</svg>
