<svg xmlns="http://www.w3.org/2000/svg" viewBox="0 0 64 64">
    <circle cx="32" cy="32" r="28" fill="none" stroke="#999" stroke-width="4"/>
    <path fill="#999" fill-rule="nonzero" d="M21.7 23.7v.04c0 .48.4.88.9.88h3.1c.52 0 .93-.42 1-.93.34-2.46 2.03-4.26 5.03-4.26 2.58 0 4.93 1.29 4.93 4.38 0 2.39-1.4 3.48-3.62 5.14-2.52 1.84-4.52 3.98-4.38 7.46l.01.81c.01.5.43.92.94.92h3.04c.52 0 .94-.42.94-.94v-.39c0-2.7 1.02-3.48 3.79-5.57 2.28-1.74 4.66-3.66 4.66-7.71 0-5.67-4.78-8.4-10.02-8.4-4.75 0-9.96 2.2-10.31 8.57h-.01Z"/>
    <ellipse cx="31.37" cy="45.28" fill="#999" rx="3.82" ry="3.5"/>
</svg>
